<?xml version="1.0" encoding="utf-8"?>
<!-- Generator: Adobe Illustrator 22.1.0, SVG Export Plug-In . SVG Version: 6.00 Build 0)  -->
<svg version="1.1" id="Capa_1" xmlns="http://www.w3.org/2000/svg" xmlns:xlink="http://www.w3.org/1999/xlink" x="0px" y="0px"
	 viewBox="0 0 512 512" style="enable-background:new 0 0 512 512;" xml:space="preserve">
<style type="text/css">
	.st0{fill:#785233;}
</style>
<g>
	<g>
		<g>
			<path class="st0" d="M411.4,424.9H355c-3.7,0-6.7,3-6.7,6.7s3,6.7,6.7,6.7h56.4c3.7,0,6.7-3,6.7-6.7S415.1,424.9,411.4,424.9z"/>
			<path class="st0" d="M355,413.3h37.6c3.7,0,6.7-3,6.7-6.7s-3-6.7-6.7-6.7H355c-3.7,0-6.7,3-6.7,6.7S351.3,413.3,355,413.3z"/>
			<path class="st0" d="M411.4,374.8H355c-3.7,0-6.7,3-6.7,6.7s3,6.7,6.7,6.7h56.4c3.7,0,6.7-3,6.7-6.7S415.1,374.8,411.4,374.8z"/>
			<path class="st0" d="M490.3,299.8c0-11.7-3.6-23.1-10.5-32.6l-7.7-10.4c37.7-35.2,50.1-89.9,31.1-137.9
				c-19-48-65.4-79.5-117-79.4c-45.8-0.1-88.1,24.8-110.1,65.1c-32.3-3.5-65,3-93.5,18.8c-21.6,13-33.5,30.2-33.7,48.5
				c0,0.1,0,0.1,0,0.1v0.3c0,0.1,0,0.2,0,0.3c0,0.1,0,0.2,0,0.3v26.2l-17.9,10.7c-1.3,0.8-2.3,2-2.8,3.4l-4.4,11.7l-27.6,0.7
				c-3.6,0.1-6.4,2.9-6.6,6.5l-0.5,13.7l-31.1,0.7c-3.6,0.1-6.4,2.9-6.6,6.5l-0.6,15.8l-33.4,0.8c-1.2,0-2.3,0.4-3.3,1l-11,6.6
				c-2.1,1.2-3.3,3.5-3.3,5.9l0.8,34.5v27.9l0,0.1c0,0,0,0.1,0,0.1v0.1c0,0.2,0.1,0.4,0.1,0.7c0,0.6,0.2,1.3,0.4,1.9
				c0.1,0.3,0.3,0.5,0.5,0.8c0.2,0.5,0.6,0.9,0.9,1.3c0.3,0.3,0.6,0.5,1,0.7c0.3,0.3,0.7,0.5,1.1,0.8c0.5,0.2,1,0.3,1.5,0.4
				c0.3,0.1,0.7,0.2,1,0.2l0.2,0l0,0l0,0l58.5,1.7h0.1l0.1,0c0.1,0,0.2,0,0.2,0c0.7,0,1.4-0.2,2-0.4c0.2-0.1,0.4-0.2,0.7-0.3
				c0.2-0.1,0.4-0.1,0.6-0.2l155.3-93.2c7.5,1,15,1.6,22.6,1.6c16.9,0,33.6-2.5,49.7-7.5c7.4,7.5,15.7,13.9,24.8,19.3
				c-4.4,8.1-6.7,17.2-6.7,26.4v147.2c-0.5,13.4,9.8,24.7,23.2,25.3h128.4c13.4-0.6,23.8-12,23.2-25.3L490.3,299.8L490.3,299.8z
				 M275.8,145.2c1.9-10.6,5.3-20.8,10.2-30.4c20.5-40.7,63.5-64.9,108.9-61.4c45.4,3.5,84.2,34.1,98.2,77.4
				c14,43.3,0.5,90.8-34.3,120.2l0,0c-12.1,10.4-26.3,18-41.6,22.3c-7.8,2.3-15.8,3.6-24,4.1c-2.5-3.4-3-7.8-1.4-11.6
				c54.4-3,96.6-48.8,95-103.3s-46.2-97.9-100.7-97.8c-35.4,0.1-68.2,18.8-86.5,49.1c-6,10-10.2,21-12.4,32.5
				c-0.9,4.8-1.5,9.7-1.6,14.6c-3.7,1.5-7.6,2.3-11.6,2.2C274.1,157.1,274.7,151.1,275.8,145.2z M328.7,120.1L328.7,120.1
				c-4.1-2.3-8.4-4.4-12.8-6.1c19.2-26.3,51.4-39.7,83.5-34.8s58.9,27.3,69.4,58.1s2.8,64.9-19.7,88.3l-18.8-25.4
				c-6.3-8.9-16.5-14.2-27.4-14.3h0c-10.9,0.1-21.1,5.5-27.4,14.3L344.6,242c-3.5-1.9-6.8-4-9.9-6.4c14-9.4,23-24.7,24.4-41.6l0,0
				v-27.9l0-0.1C359.7,148.1,348.8,131.8,328.7,120.1z M59.5,340.6l-45.3-1.4v-14.7l45.3,1.4V340.6z M64.5,312.5L14.1,311l-0.6-24.3
				l6.1-3.6l37.9-1c3.5-0.1,6.4-2.9,6.6-6.5l0.6-15.8l31.1-0.7c3.6-0.1,6.4-2.9,6.6-6.5l0.5-13.7l25.8-0.6c2.7-0.1,5.2-1.8,6.1-4.4
				l5.2-13.7l24.2-14.5c4.6,4.4,9.7,8.3,15.2,11.5c0.5,0.3,1,0.5,1.5,0.8L52.9,294.9c-3.2,1.9-4.2,6.1-2.3,9.2s6.1,4.2,9.2,2.3
				l136-81.6c3.1,1.2,6.4,2.2,9.7,3.1L64.5,312.5z M216.8,249.3L73,335.6v-12.5l143.8-86.3L216.8,249.3L216.8,249.3z M186.2,205.5
				L186.2,205.5c-15.2-8.8-23.6-20.4-23.8-32.7v-0.5c0-13.4,9.9-26.9,27.2-37.3c24.5-13.4,52.4-19.4,80.2-17.3
				c-2.8,6.8-5,13.9-6.5,21.1c-2.3,0.8-4.5,1.7-6.6,2.9c-6,3.1-9.9,9.1-10.3,15.8c0.3,6.3,4,11.9,9.6,14.7c3,1.7,6.3,2.9,9.8,3.5
				c2.9,0.6,5.8,0.9,8.7,0.9c7.2,0.1,14.3-1.7,20.5-5.3l0.7-0.4c5.5-3,9.1-8.5,9.6-14.8c0.1-4-1.4-7.9-4.1-10.8
				c1.6-6.9,4-13.5,7.3-19.8c4.6,1.7,9,3.7,13.3,6.1c15.6,9,24,21,23.8,34.1l0,0v0.4c-0.6,13-10.2,25.8-27.1,36
				c-4.6,2.7-9.4,5.1-14.3,7.1c-7.5,3-15.2,5.4-23.2,7.2c-0.1,0-0.3,0-0.4,0.1C246.7,223.9,210.5,219.7,186.2,205.5z M260.9,155.5
				c-0.1,1.1-0.1,2.3-0.2,3.4c-0.4-0.4-0.7-0.9-0.8-1.5C260,156.7,260.4,156,260.9,155.5z M297.1,240.3c-21.5,7.1-44.3,9.5-66.7,6.9
				v-14.6c5.8,0.6,11.6,0.9,17.4,0.9c11.9,0,23.8-1.2,35.5-3.7c0.2,0,0.3,0,0.4-0.1c8.8-1.9,17.4-4.5,25.7-7.9
				c5.5-2.3,10.9-5,16.1-8c7.3-4.3,14-9.6,19.7-15.8c-2,11.5-10.8,22.6-25.8,31.9c-0.2,0.2-0.4,0.3-0.8,0.5
				C311.8,234.5,304.5,237.8,297.1,240.3z M311.4,249.1L311.4,249.1c3.9-1.7,7.6-3.6,11.3-5.6c4.3,3.6,9,6.8,13.8,9.5l-6.9,9.3
				C323.1,258.5,317,254.1,311.4,249.1z M467.1,458.9H338.7c-5.9-0.6-10.3-5.9-9.7-11.9V299.8c0-8.9,2.8-17.6,8-24.8l49.4-66.8
				c3.7-5.5,9.9-8.9,16.6-8.9s12.9,3.3,16.6,8.9l19.5,26.4c-7.3,5.7-15.6,10.1-24.3,13.1c-9.9-5.1-21.9-3.3-29.8,4.6
				c-0.9,0.9-1.8,1.9-2.5,3c-7.5,10.1-6.4,24.2,2.5,33.1c0.3,0.4,0.7,0.7,1.1,1c4.6,4.2,10.7,6.5,16.9,6.5c6.8,0,13.4-2.7,18.2-7.6
				c0.9-0.9,1.6-1.9,2.4-2.9c13.9-4.3,26.8-11,38.4-19.8l7.1,9.7c5.2,7.1,7.9,15.7,7.9,24.6l0,0v147.2
				C477.4,453,473,458.3,467.1,458.9z"/>
		</g>
	</g>
</g>
</svg>
